<?xml version="1.0" encoding="utf-8"?>
<!-- Generator: Adobe Illustrator 23.1.1, SVG Export Plug-In . SVG Version: 6.00 Build 0)  -->
<svg version="1.1" id="Layer_1" xmlns="http://www.w3.org/2000/svg" xmlns:xlink="http://www.w3.org/1999/xlink" x="0px" y="0px"
	 viewBox="0 0 345.29 59.92" style="enable-background:new 0 0 345.29 59.92;" xml:space="preserve">
<style type="text/css">
	.st0{fill-rule:evenodd;clip-rule:evenodd;}
</style>
<g>
	<g>
		<g>
			<path class="st0" d="M165.42,28.11c-0.12-2.14-0.99-3.99-2.24-5.52c-1.8-2.19-3.18-2.84-5.43-3.85
				c-2.99-1.34-9.99-1.39-9.99-1.39l-21.82,0.03c-1.71,0-3.81,1.39-4.67,3.1l-9.57,18.97c-0.87,1.71-0.18,3.1,1.53,3.1h24.23
				c0,0,8-0.43,12.65-1.61c5.06-1.03,7.16-2.03,9.28-3.21C163.85,35.28,165.51,29.83,165.42,28.11z M148.5,30.09
				c-1.19,2.46-5.86,6.7-13.82,7.38c-1.25,0.11-5.42,0-5.42,0l6.36-12.73c0.87-1.71,2.96-3.1,4.66-3.1l2.55,0.01
				c0.04,0,3.69-0.02,5.47,2.01C149.49,24.95,149.46,27.89,148.5,30.09z"/>
		</g>
		<g>
			<path class="st0" d="M71.71,22.98c0-0.83-1.05-3.08-4.33-4.26c-3.22-1.16-7.95-1.34-7.95-1.34H41.98l0,0h-2.88H28.67
				c-1.71,0-3.77,1.38-4.62,3.09l-9.48,19.02C14.31,40,14.2,40.48,14.2,40.9c0,0.99,0.68,1.68,1.88,1.68h0.39l1.33,0.01l10.92-0.02
				h0.64l4.96-9.89l6.59-0.01l0.37-0.03l3.21,6.8c0.77,1.7,2.78,3.08,4.49,3.08h13.29l-5.29-11.26c2.38-0.25,5.7-0.73,8.14-1.67
				C68.63,28.24,71.71,26.25,71.71,22.98z M49.1,28.28H36.65l1.72-3.37c0.85-1.54,2.59-2.77,4.19-2.77h9c0.41,0,3.17,0.64,3.02,2.45
				C54.33,27.45,49.35,28.28,49.1,28.28z"/>
		</g>
		<g>
			<path class="st0" d="M109.71,32.78c1.29,0,2.28-0.55,2.9-1.64c-0.04,0,2.03-4.06,2.03-4.06l-25.39-0.01l1.98-3.96h23.41
				c1.28,0,2.28-0.55,2.9-1.65c-0.03,0,2.04-4.06,2.04-4.06l-38.74-0.01c-1.7,0-3.79,1.38-4.67,3.09l-9.47,19.02
				c-0.86,1.7-0.2,3.08,1.51,3.08h36.47c1.27,0,2.28-0.55,2.9-1.64c-0.04,0,2.03-4.06,2.03-4.06l-25.25-0.01l2.03-4.08H109.71z"/>
		</g>
		<g>
			<path class="st0" d="M292.46,17.39c-1.7,0-3.79,1.38-4.66,3.09l-9.47,19.02c-0.87,1.7-0.21,3.08,1.5,3.08h36.47
				c1.27,0,2.28-0.55,2.89-1.64c-0.04,0,2.03-4.06,2.03-4.06l-25.25-0.01l2.04-4.08h23.33c1.29,0,2.29-0.55,2.91-1.64
				c-0.04,0,2.03-4.06,2.03-4.06l-25.4-0.01l1.98-3.96h23.41c1.29,0,2.28-0.55,2.9-1.65c-0.04,0,2.03-4.06,2.03-4.06L292.46,17.39z"
				/>
		</g>
		<g>
			<path class="st0" d="M190.81,17.38l-13.26,0.01c-1.7,0-3.79,1.38-4.67,3.09l-9.46,19.02c-0.88,1.7-0.2,3.08,1.5,3.08l33.03,0
				c1.11,0,1.98-0.47,2.52-1.43c-0.01,0,1.81-3.47,1.81-3.47l-21.62,0L190.81,17.38z"/>
		</g>
		<g>
			<path class="st0" d="M218.3,17.39c-1.7,0-3.79,1.38-4.67,3.09l-9.46,19.02c-0.87,1.7-0.21,3.08,1.5,3.08l13.29,0l12.61-25.19
				L218.3,17.39z"/>
		</g>
		<g>
			<path class="st0" d="M273.02,17.39c-1.7,0-3.78,1.38-4.67,3.09l-5.86,11.77l-9.98-13.62c-0.65-0.84-1.3-1.23-2.39-1.23l-12.22,0
				c-1.71,0-3.79,1.38-4.67,3.09l-9.46,19.02c-0.87,1.7-0.2,3.08,1.5,3.08l13.29,0l0,0h0.06l0.48-1.09l7.34-14.66l7.57,10.86
				l1.22,1.71c1.39,2.05,2.39,3.18,5,3.18h0.1c0.01,0,0.03,0,0.05,0l13.29,0l12.6-25.19L273.02,17.39z"/>
		</g>
	</g>
	<g>
		<path d="M320.15,41.48v-0.04c0-0.61,0.43-1.09,1-1.09c0.58,0,1.01,0.48,1.01,1.09v0.03c0,0.61-0.44,1.09-1.01,1.09
			C320.58,42.56,320.15,42.08,320.15,41.48z M322.02,41.47v-0.03c0-0.54-0.36-0.96-0.88-0.96c-0.5,0-0.86,0.43-0.86,0.96v0.04
			c0,0.54,0.36,0.96,0.86,0.96S322.02,42.01,322.02,41.47z M320.74,40.86h0.44c0.26,0,0.44,0.12,0.44,0.38v0.01
			c0,0.17-0.09,0.29-0.22,0.34l0.26,0.43h-0.29l-0.23-0.38h-0.15v0.38h-0.25V40.86z M321.17,41.43c0.12,0,0.19-0.07,0.19-0.18
			c0-0.11-0.08-0.17-0.19-0.17h-0.18v0.34H321.17z"/>
	</g>
</g>
</svg>
