<?xml version="1.0" encoding="utf-8"?>
<!-- Generator: Adobe Illustrator 23.1.1, SVG Export Plug-In . SVG Version: 6.00 Build 0)  -->
<svg version="1.1" id="Layer_1" xmlns="http://www.w3.org/2000/svg" xmlns:xlink="http://www.w3.org/1999/xlink" x="0px" y="0px"
	 viewBox="0 0 203.41 36.5" style="enable-background:new 0 0 203.41 36.5;" xml:space="preserve">
<path d="M154.85,17.09c1.1-0.02,2.32-0.92,2.71-2.02l0.76-2.08l0.77-2.13l-5.91-0.01c-1.03,0.01-2.02,0.48-2.24,1.08l-1.48,4.1
	c-0.2,0.51-0.94,0.92-1.8,1.03c-0.13,0.03-0.27,0.03-0.44,0.04h-8.82l2.3-6.3l-7.75,0l-5.37,14.72l7.76,0l2.25-6.15l11.21,0
	c1.01,0.02,1.65,0.48,1.43,1.07l-1.48,4.1c-0.21,0.6,0.42,1.07,1.44,1.08l5.92-0.01l2.12-5.81c0.23-0.63,0.08-1.2-0.37-1.65
	C157.3,17.55,156.22,17.14,154.85,17.09 M107.39,20.43l-0.66,1.83c-0.22,0.59-1.22,1.06-2.21,1.06l-10.46-0.01l1.45-3.96l10.45,0.01
	C106.97,19.36,107.6,19.84,107.39,20.43 M112.01,17.09c1.1-0.05,2.29-0.94,2.7-2.02l0.06-0.16l0.66-1.85
	c0.28-0.87-0.32-1.63-1.48-1.98c-0.46-0.13-0.99-0.23-1.58-0.21l-21.51,0l-1.73,4.72l7.76-0.01l0.89-2.44l8.13,0
	c0.93,0.01,1.53,0.44,1.39,0.99l-0.69,1.9c-0.17,0.49-0.93,0.92-1.78,1.03c-0.15,0.03-0.29,0.03-0.44,0.04l-15.82,0.01l-3.08,8.5
	l23.22,0c1.56-0.01,3.08-0.45,4.16-1.16c0.68-0.42,1.17-0.95,1.39-1.52l1.14-3.15c0.22-0.62,0.07-1.19-0.38-1.64
	C114.44,17.53,113.37,17.14,112.01,17.09 M74.85,11.9c-0.61-0.64-1.78-1.04-3.24-1.03l-18.64-0.01c-1.12,0.01-2.25,0.24-3.19,0.64
	c-1.17,0.51-2.07,1.22-2.35,2.05l-0.73,2.03l7.76,0l0.49-1.38c0.22-0.59,1.22-1.06,2.24-1.07l8.6-0.01c1.01,0,1.67,0.48,1.44,1.09
	l-1.05,2.89l-11.41,0l-0.88-0.01l-7.76,0.01l-3.09,8.49l7.75,0l2.29-6.23l12.28,0.01l-2.28,6.21l7.76,0.01l4.38-12.06
	C75.43,12.92,75.3,12.36,74.85,11.9 M37.08,10.87l-2.26,6.23l-9.95,0l-2.34,0l-7.76,0l-3.09,8.49l7.77,0l2.27-6.23l12.26-0.01
	l-2.25,6.23l7.76,0l5.34-14.72L37.08,10.87z M24.8,10.87l-7.75-0.01l-1.73,4.72l7.78,0L24.8,10.87z M167.16,22.26l1.06-2.89
	l16.8-0.01l0.83-2.26l-24.57-0.01l-2.12,5.82c-0.2,0.63-0.07,1.19,0.38,1.66c0.6,0.63,1.76,1.02,3.24,1.02l23.22,0l0.81-2.27
	l-18.2,0C167.6,23.34,166.94,22.85,167.16,22.26 M168.15,10.87c-1.15-0.01-2.26,0.24-3.2,0.64c-1.18,0.49-2.05,1.22-2.36,2.04
	l-0.78,2.11l7.76-0.01l0.53-1.45c0.22-0.59,1.21-1.07,2.23-1.06l18.2-0.02l0.83-2.26L168.15,10.87z M129.73,10.86l-7.76,0.01
	l-1.72,4.72l7.74,0L129.73,10.86z M116.6,25.6l7.75-0.01l3.12-8.59l-7.76,0.01L116.6,25.6z M74.39,25.6l7.75-0.01l3.12-8.58
	l-7.76,0.01L74.39,25.6z M87.49,10.86l-7.75-0.01l-1.71,4.73l7.75-0.01L87.49,10.86z"/>
</svg>
